# xmcd
#
# Track frame offsets:
#	150
#	14912
#	29125
#	44557
#	61557
#	78812
#	97554
#	111682
#	126420
#	142710
#	158502
#	174832
#	192890
#	210682
#	227290
#	242362
#	256342
#	273740
#	291545
#	308525
#	324612
#
# Disc length: 4519 seconds
#
# Revision: 1
# Processed by: cddbd v1.4PL0 Copyright (c) Steve Scherf et al.
# Submitted via: audiograbber 1.80
#
DISCID=1e11a515
DTITLE=Various Artist - Hott Country 040
DYEAR=1900
DGENRE=
TTITLE0=Alabama - God Must Have Spent A Little More Time On You
TTITLE1=Kenny Rogers - The Greatest
TTITLE2=Dixie Chicks - Tonight The Heartaches On Me
TTITLE3=Travis Tritt - Star The Car
TTITLE4=Brooks and Dunn - South Of Santa Fe
TTITLE5=Deanna Carter - Angels Working Overtime
TTITLE6=Sara Evans - Fool, I'm A Woman
TTITLE7=Chely Wright - Single White Female
TTITLE8=George Starit - Write This Down
TTITLE9=Julie Reeves - It's About Time
TTITLE10=Sherrie Austin - Never Been Kissed
TTITLE11=Lonestar - Amazed
TTITLE12=Tractors - I Wouldn't Tell You No Lie
TTITLE13=Mary Chapin Carpenter - Almost Home
TTITLE14=SHeDAISY - Little Good-byes
TTITLE15=Shane Minor - Slave To The Habit
TTITLE16=Chalee Tennison - Someone Else's Turn To Cry
TTITLE17=Doug Stone - Make Up In Love
TTITLE18=David Ball - Watching My Baby Not Coming Back
TTITLE19=Mark Chesnutt - This Heartache Never Sleeps
TTITLE20=Great Divide - San Isabello
EXTD=
EXTT0=
EXTT1=
EXTT2=
EXTT3=
EXTT4=
EXTT5=
EXTT6=
EXTT7=
EXTT8=
EXTT9=
EXTT10=
EXTT11=
EXTT12=
EXTT13=
EXTT14=
EXTT15=
EXTT16=
EXTT17=
EXTT18=
EXTT19=
EXTT20=
PLAYORDER=
